<?xml version="1.0" encoding="UTF-8"?><svg xmlns="http://www.w3.org/2000/svg" viewBox="0 0 162.97 162.97"><defs><style>.c,.d,.e{stroke-linecap:round;}.c,.d,.e,.f{stroke:#000;stroke-width:3px;}@media(prefers-color-scheme:dark){.c,.d,.e,.f{stroke:#fff;stroke-width:3px;}}.c,.e,.f{fill:none;}.c,.f{stroke-miterlimit:10;}.d,.e{stroke-linejoin:round;}</style></defs><g id="a"><path class="f" d="M60.05,46.88c-1.12,1.71-3.54,5.97-5.06,9.05-1.84,3.73-2.23,5.69-2.72,7.58-2.01,7.9,3.52,9.4,5.29,10.1,3.13,1.25,6.02,2.1,13.16,2.72,14.94,1.29,27.1-1.28,33.55-2.97,2.98-.78,5.37-1.53,6.86-2.02"/><path class="f" d="M113.22,54.17c.34,1.15,1.05,3.4,1.32,4.76.53,2.7.65,4.04.66,4.93.02,1.15-.07,1.84-.21,2.46-.09.39-.31,1.3-.88,2.25-.97,1.63-2.42,2.47-3.19,2.84"/><path class="f" d="M30.49,41.03c24.27,4.8,48.54,9.6,72.81,14.4.76.15,1.52.3,2.28.45"/><path class="f" d="M143.3,46.12c-9.62,2.73-19.43,5.37-29.44,7.9-2.61.66-5.22,1.31-7.82,1.94"/><path class="f" d="M105.23,55.88h1.17"/><path class="f" d="M143.3,46.12c-12.64-3.07-23.37-5.08-31.42-6.41-13.5-2.23-20.53-3.37-30.52-3.51-8.12-.11-14.18.48-25.59,1.61-10.43,1.03-19.1,2.25-25.29,3.22"/><path class="c" d="M143.37,46.14c-.64-.13-1.27-.27-1.91-.4"/><path class="c" d="M30.41,41.03c.53,0,1.05.01,1.58.02"/><path class="c" d="M88.34,42.94c6.11,1.41,11.08,2.02,14.59,2.32.61.05,8.95.76,13.85,3.25,1.64.83,2.55,1.69,3.06,2.25.98,1.06,1.02,1.6,2.42,4.03,1.35,2.34,1.63,2.41,2.75,4.41.89,1.6,1.54,3.04,1.99,4.17"/><path class="c" d="M127.99,66.18c.42.55.97,1.35,1.48,2.37.74,1.46,1.72,3.44,1.52,5.78-.28,3.17-1.52,5.09-1.52,5.09-.19.29-.51.75-.44,1.33.08.64.72,1.01,2.18,2.02.22.15,4.02,2.73,5.72,1.42.44-.34.63-.86.79-1.74.64-3.53-.28-6.6-.35-6.82-1.68-5.39-6.12-9.69-7.39-10.87"/><path class="c" d="M129.98,64.76l-1.99,1.42"/><path class="c" d="M127.99,66.18c-.34-.49-.67-.97-1.01-1.46-.07-.11-.17-.33-.19-.63-.02-.39.12-.68.19-.8"/><path class="c" d="M129.98,64.76c-.09-.26-.32-.84-.9-1.31-.31-.25-.6-.52-1.04-.53-.59-.02-1.01.4-1.11.5"/><path class="c" d="M127.04,60.73c.33.73.66,1.46,1,2.19"/><path class="c" d="M118.83,48.41c.68.66,1.64,1.67,2.65,3.03.9,1.2,1.42,2.12,2.32,3.7.67,1.17,1.76,3.06,3.23,5.59"/><path class="c" d="M88.34,42.94c5.08.36,9.56.81,13.31,1.24,6.46.75,9.95,1.38,14.01,2.9,1.34.5,2.43.98,3.17,1.33"/><path class="c" d="M59.44,97.97c1.85.12,3.48,1.51,3.4,3.57-.16,3.79-.8,6.03-.69,6.07.1.03-.43-3.1,2.02-6.37,1.77-2.36,2.9-2.89,5.04-2.48"/></g><g id="b"><path class="e" d="M113.06,71.21c14.32,19.82,17.13,43.49,22.41,66.74"/><path class="e" d="M104.29,111.59c-13.65,7.35-35.1,7.22-48.05-1.69-13.12-9.02-13.55-27.93-2.47-37.83"/><path class="c" d="M95.95,159.93c5.47-.89,14-2.97,23.12-8.34,7.69-4.53,13.03-9.77,16.4-13.65"/><path class="e" d="M89.73,123.99c1.06,4.04,2.05,8.31,2.94,12.79,1.63,8.24,2.66,16,3.29,23.16"/><circle class="d" cx="84.14" cy="85.69" r="4.21"/><circle class="e" cx="81.49" cy="81.49" r="79.99"/></g></svg>